<?xml version="1.0" encoding="utf-8"?>
<!-- Generator: Adobe Illustrator 18.1.0, SVG Export Plug-In . SVG Version: 6.00 Build 0)  -->
<svg version="1.1" id="Layer_1" xmlns="http://www.w3.org/2000/svg" xmlns:xlink="http://www.w3.org/1999/xlink" x="0px" y="0px"
	 viewBox="0 0 347 50.7" enable-background="new 0 0 347 50.7" xml:space="preserve">
<g>
	<g>
		<linearGradient id="SVGID_1_" gradientUnits="userSpaceOnUse" x1="11.011" y1="11.1518" x2="35.0007" y2="35.1415">
			<stop  offset="0" style="stop-color:#F7931E"/>
			<stop  offset="1" style="stop-color:#F15A24"/>
		</linearGradient>
		<path fill="url(#SVGID_1_)" d="M40,23.1c0-9.3-7.7-16.9-17-16.9S6.1,13.7,6.1,23.1c0,6.6,3.2,12.3,9.2,15.1v-2.3
			c-4-2.6-7.3-7.4-7.3-12.8c0-8.2,6.7-14.9,14.9-14.9S38,14.8,38,23.1c0,5.3-2.7,9.9-6.7,12.6V38C36.3,35.1,40,29.5,40,23.1z"/>
		<linearGradient id="SVGID_2_" gradientUnits="userSpaceOnUse" x1="7.739" y1="7.7665" x2="38.4132" y2="38.4406">
			<stop  offset="0" style="stop-color:#F7931E"/>
			<stop  offset="1" style="stop-color:#F15A24"/>
		</linearGradient>
		<path fill="url(#SVGID_2_)" d="M22.9,1.5C11,1.5,1.4,11.2,1.4,23.1c0,9.2,5.9,17,13.9,20.1v-2.1c-7-3-11.9-9.9-11.9-18
			c0-10.8,8.8-19.6,19.6-19.6s19.8,8.8,19.8,19.6c0,7.9-5.4,14.8-11.4,17.8v2.2c8-3.2,13.4-11,13.4-20C44.7,11.2,34.8,1.5,22.9,1.5z
			"/>
	</g>
	<linearGradient id="SVGID_3_" gradientUnits="userSpaceOnUse" x1="21.1248" y1="44.7073" x2="25.1354" y2="48.7179">
		<stop  offset="0" style="stop-color:#F7931E"/>
		<stop  offset="1" style="stop-color:#F15A24"/>
	</linearGradient>
	<path fill="url(#SVGID_3_)" d="M19.4,46.4c0.5,1.6,2,2.7,3.7,2.7c1.7,0,3.2-1.1,3.7-2.7H19.4z"/>
	<linearGradient id="SVGID_4_" gradientUnits="userSpaceOnUse" x1="13.8325" y1="15.0602" x2="32.0068" y2="33.2344">
		<stop  offset="0" style="stop-color:#F7931E"/>
		<stop  offset="1" style="stop-color:#F15A24"/>
	</linearGradient>
	<path fill="url(#SVGID_4_)" d="M28.8,36.5H17.1v-2.7c-3.9-2.1-6.3-6.2-6.3-10.6c0-4.9,2.9-9.3,7.4-11.2l1.4-0.6v10.9
		c0,1.9,1.5,3.4,3.4,3.4c1.9,0,3.4-1.5,3.4-3.4V11.4l1.4,0.6c4.5,1.9,7.4,6.3,7.4,11.2c0,4.5-2.4,8.5-6.3,10.6V36.5z M19.1,34.5h7.7
		v-1.9l0.6-0.3c3.5-1.7,5.7-5.2,5.7-9.1c0-3.5-1.8-6.8-4.8-8.6v7.7c0,3-2.4,5.4-5.4,5.4s-5.4-2.4-5.4-5.4v-7.7
		c-2.9,1.8-4.8,5.1-4.8,8.6c0,3.9,2.2,7.4,5.7,9.1l0.6,0.3V34.5z"/>
	<linearGradient id="SVGID_5_" gradientUnits="userSpaceOnUse" x1="19.7129" y1="36.2271" x2="26.4719" y2="42.9861">
		<stop  offset="0" style="stop-color:#F7931E"/>
		<stop  offset="1" style="stop-color:#F15A24"/>
	</linearGradient>
	<rect x="17.3" y="38.6" fill="url(#SVGID_5_)" width="11.5" height="2"/>
	<linearGradient id="SVGID_6_" gradientUnits="userSpaceOnUse" x1="19.7129" y1="40.2872" x2="26.4719" y2="47.0462">
		<stop  offset="0" style="stop-color:#F7931E"/>
		<stop  offset="1" style="stop-color:#F15A24"/>
	</linearGradient>
	<rect x="17.3" y="42.7" fill="url(#SVGID_6_)" width="11.5" height="2"/>
</g>
<g>
	<path fill="#FFFFFF" d="M71.5,33.7H68L62.3,26l-2.9,3.2v4.5h-2.9V16.3h2.9v9.1l8.3-9.1h3.4l-6.7,7.4L71.5,33.7z"/>
	<path fill="#FFFFFF" d="M87,16.3h2.9v17.3H87l-9.2-12.5v12.5h-2.9V16.3h2.9L87,28.9V16.3z"/>
	<path fill="#FFFFFF" d="M107.5,17.3c1.4,0.8,2.5,1.8,3.3,3.2c0.8,1.4,1.2,2.8,1.2,4.5c0,1.7-0.4,3.2-1.2,4.5
		c-0.8,1.4-1.9,2.4-3.3,3.2c-1.4,0.8-3,1.2-4.7,1.2c-1.7,0-3.3-0.4-4.7-1.2c-1.4-0.8-2.5-1.9-3.3-3.2c-0.8-1.4-1.2-2.9-1.2-4.5
		c0-1.6,0.4-3.1,1.2-4.5c0.8-1.4,1.9-2.4,3.3-3.2c1.4-0.8,3-1.2,4.7-1.2C104.5,16.1,106.1,16.5,107.5,17.3z M99.7,19.6
		c-1,0.6-1.7,1.3-2.3,2.2s-0.8,2-0.8,3.1c0,1.1,0.3,2.2,0.9,3.1c0.6,1,1.3,1.7,2.3,2.3c0.9,0.6,2,0.8,3.1,0.8c1.1,0,2.2-0.3,3.1-0.8
		s1.7-1.3,2.2-2.3c0.6-1,0.8-2,0.8-3.1c0-1.1-0.3-2.2-0.8-3.1c-0.6-0.9-1.3-1.7-2.2-2.2c-0.9-0.6-2-0.8-3.1-0.8
		C101.7,18.8,100.7,19.1,99.7,19.6z"/>
	<path fill="#FFFFFF" d="M136.4,16.3h3l-5.9,17.3h-3L126.4,20l-4.3,13.6h-3l-5.8-17.3h3.1l4.3,14.1l4.3-14.1h2.9l4.3,14.1
		L136.4,16.3z"/>
	<path fill="#FFFFFF" d="M164,16.3l-6.4,11.6v5.8h-2.9V28l-6.5-11.7h2.9l5,8.4l4.9-8.4H164z"/>
	<path fill="#FFFFFF" d="M178.5,17.3c1.4,0.8,2.5,1.8,3.3,3.2c0.8,1.4,1.2,2.8,1.2,4.5c0,1.7-0.4,3.2-1.2,4.5
		c-0.8,1.4-1.9,2.4-3.3,3.2c-1.4,0.8-3,1.2-4.7,1.2c-1.7,0-3.3-0.4-4.7-1.2c-1.4-0.8-2.5-1.9-3.3-3.2c-0.8-1.4-1.2-2.9-1.2-4.5
		c0-1.6,0.4-3.1,1.2-4.5c0.8-1.4,1.9-2.4,3.3-3.2c1.4-0.8,3-1.2,4.7-1.2C175.6,16.1,177.1,16.5,178.5,17.3z M170.8,19.6
		c-1,0.6-1.7,1.3-2.3,2.2s-0.8,2-0.8,3.1c0,1.1,0.3,2.2,0.9,3.1c0.6,1,1.3,1.7,2.3,2.3c0.9,0.6,2,0.8,3.1,0.8c1.1,0,2.2-0.3,3.1-0.8
		s1.7-1.3,2.2-2.3c0.6-1,0.8-2,0.8-3.1c0-1.1-0.3-2.2-0.8-3.1c-0.6-0.9-1.3-1.7-2.2-2.2c-0.9-0.6-2-0.8-3.1-0.8
		C172.8,18.8,171.7,19.1,170.8,19.6z"/>
	<path fill="#FFFFFF" d="M190.6,30c0.8,0.8,1.9,1.3,3.3,1.3c1.4,0,2.5-0.4,3.3-1.2c0.8-0.8,1.2-2,1.2-3.4V16.3h2.9v10.2
		c0,1.5-0.3,2.8-0.9,3.9c-0.6,1.1-1.5,1.9-2.6,2.5s-2.4,0.9-4,0.9c-1.5,0-2.9-0.3-4-0.9c-1.1-0.6-2-1.4-2.6-2.5
		c-0.6-1.1-0.9-2.4-0.9-3.9V16.3h2.9v10.2C189.4,28,189.8,29.1,190.6,30z"/>
	<path fill="#FFFFFF" d="M217.2,33.7l-3.2-5.2c-0.2,0-0.4,0-0.8,0h-4.1v5.2h-2.9V16.3h7c2.2,0,3.9,0.5,5.2,1.5
		c1.2,1,1.8,2.5,1.8,4.4c0,1.4-0.3,2.6-0.9,3.5c-0.6,1-1.5,1.7-2.7,2.1l3.9,5.8H217.2z M213.2,25.8c1.4,0,2.4-0.3,3.1-0.9
		c0.7-0.6,1.1-1.5,1.1-2.6c0-1.1-0.4-2-1.1-2.5c-0.7-0.6-1.8-0.8-3.1-0.8h-4.1v6.9H213.2z"/>
	<path fill="#FFFFFF" d="M230.7,16.3h13.9v2.6h-5.5v14.7h-2.9V18.9h-5.5V16.3z"/>
	<path fill="#FFFFFF" d="M259.1,17.3c1.4,0.8,2.5,1.8,3.3,3.2c0.8,1.4,1.2,2.8,1.2,4.5c0,1.7-0.4,3.2-1.2,4.5
		c-0.8,1.4-1.9,2.4-3.3,3.2c-1.4,0.8-3,1.2-4.7,1.2c-1.7,0-3.3-0.4-4.7-1.2c-1.4-0.8-2.5-1.9-3.3-3.2c-0.8-1.4-1.2-2.9-1.2-4.5
		c0-1.6,0.4-3.1,1.2-4.5c0.8-1.4,1.9-2.4,3.3-3.2c1.4-0.8,3-1.2,4.7-1.2C256.1,16.1,257.7,16.5,259.1,17.3z M251.4,19.6
		c-1,0.6-1.7,1.3-2.3,2.2s-0.8,2-0.8,3.1c0,1.1,0.3,2.2,0.9,3.1c0.6,1,1.3,1.7,2.3,2.3c0.9,0.6,2,0.8,3.1,0.8c1.1,0,2.2-0.3,3.1-0.8
		s1.7-1.3,2.2-2.3c0.6-1,0.8-2,0.8-3.1c0-1.1-0.3-2.2-0.8-3.1c-0.6-0.9-1.3-1.7-2.2-2.2c-0.9-0.6-2-0.8-3.1-0.8
		C253.4,18.8,252.3,19.1,251.4,19.6z"/>
	<path fill="#FFFFFF" d="M279.1,17.3c1.4,0.8,2.5,1.8,3.3,3.2c0.8,1.4,1.2,2.8,1.2,4.5c0,1.7-0.4,3.2-1.2,4.5
		c-0.8,1.4-1.9,2.4-3.3,3.2c-1.4,0.8-3,1.2-4.7,1.2c-1.7,0-3.3-0.4-4.7-1.2c-1.4-0.8-2.5-1.9-3.3-3.2c-0.8-1.4-1.2-2.9-1.2-4.5
		c0-1.6,0.4-3.1,1.2-4.5c0.8-1.4,1.9-2.4,3.3-3.2c1.4-0.8,3-1.2,4.7-1.2C276.1,16.1,277.7,16.5,279.1,17.3z M271.3,19.6
		c-1,0.6-1.7,1.3-2.3,2.2s-0.8,2-0.8,3.1c0,1.1,0.3,2.2,0.9,3.1c0.6,1,1.3,1.7,2.3,2.3c0.9,0.6,2,0.8,3.1,0.8c1.1,0,2.2-0.3,3.1-0.8
		s1.7-1.3,2.2-2.3c0.6-1,0.8-2,0.8-3.1c0-1.1-0.3-2.2-0.8-3.1c-0.6-0.9-1.3-1.7-2.2-2.2c-0.9-0.6-2-0.8-3.1-0.8
		C273.3,18.8,272.3,19.1,271.3,19.6z"/>
	<path fill="#FFFFFF" d="M287.4,16.3h2.9V31h7.5v2.6h-10.4V16.3z"/>
	<path fill="#FFFFFF" d="M309.1,19.2c-0.9-0.3-1.7-0.4-2.4-0.4c-0.9,0-1.5,0.2-2.1,0.5c-0.5,0.3-0.8,0.8-0.8,1.4
		c0,0.5,0.2,1,0.5,1.3c0.3,0.3,0.7,0.6,1.2,0.8c0.5,0.2,1.2,0.4,2.1,0.7c1.2,0.4,2.1,0.7,2.9,1.1c0.7,0.3,1.4,0.8,1.9,1.5
		s0.8,1.5,0.8,2.6c0,1-0.3,1.9-0.8,2.7c-0.6,0.8-1.3,1.4-2.3,1.8c-1,0.4-2.1,0.6-3.4,0.6c-1.3,0-2.6-0.2-3.9-0.7
		c-1.2-0.5-2.3-1.2-3.2-2l1.3-2.5c0.9,0.8,1.8,1.4,2.9,1.9c1,0.5,2,0.7,3,0.7c1,0,1.8-0.2,2.4-0.6c0.6-0.4,0.9-0.9,0.9-1.6
		c0-0.5-0.2-1-0.5-1.3c-0.3-0.3-0.8-0.6-1.3-0.8s-1.2-0.4-2.1-0.7c-1.2-0.3-2.1-0.7-2.9-1c-0.7-0.3-1.3-0.8-1.9-1.5
		s-0.8-1.5-0.8-2.6c0-1,0.3-1.8,0.8-2.6c0.5-0.7,1.3-1.3,2.2-1.7c1-0.4,2.1-0.6,3.3-0.6c1.1,0,2.2,0.2,3.2,0.5
		c1.1,0.3,2,0.8,2.8,1.3l-1.2,2.6C310.9,19.9,310,19.5,309.1,19.2z"/>
	<path fill="#FFFFFF" d="M317.2,16.3h12.4v2.6h-9.5v4.7h8.5v2.6h-8.5V31h9.8v2.6h-12.7V16.3z"/>
	<path fill="#FFFFFF" d="M332,16.3h13.9v2.6h-5.5v14.7h-2.9V18.9H332V16.3z"/>
</g>
</svg>
